<svg width="22" height="22" viewBox="0 0 22 22" fill="none" xmlns="http://www.w3.org/2000/svg">
<ellipse cx="10.772" cy="11.8753" rx="2.54545" ry="2.54545" stroke="white" stroke-width="1.5" stroke-linecap="round" stroke-linejoin="round"/>
<path d="M4.83174 6.03447C4.41752 6.03447 4.08174 6.37025 4.08174 6.78447C4.08174 7.19868 4.41752 7.53447 4.83174 7.53447V6.03447ZM10.7711 4.98901C11.1853 4.98901 11.5211 4.65323 11.5211 4.23901C11.5211 3.8248 11.1853 3.48901 10.7711 3.48901V4.98901ZM19.1575 10.1784C19.1575 9.76419 18.8217 9.42841 18.4075 9.42841C17.9933 9.42841 17.6575 9.76419 17.6575 10.1784H19.1575ZM4.83174 7.53447C5.24595 7.53447 5.58174 7.19868 5.58174 6.78447C5.58174 6.37025 5.24595 6.03447 4.83174 6.03447V7.53447ZM4.83174 7.53447H6.5287V6.03447H4.83174V7.53447ZM6.5287 7.53447C7.88013 7.53447 8.97567 6.43892 8.97567 5.0875H7.47567C7.47567 5.6105 7.0517 6.03447 6.5287 6.03447V7.53447ZM8.97567 5.0875C8.97567 5.03311 9.01977 4.98901 9.07416 4.98901V3.48901C8.19134 3.48901 7.47567 4.20468 7.47567 5.0875H8.97567ZM9.07416 4.98901H10.7711V3.48901H9.07416V4.98901ZM17.6575 10.1784V16.1178H19.1575V10.1784H17.6575ZM17.6575 16.1178C17.6575 16.6408 17.2335 17.0648 16.7105 17.0648V18.5648C18.0619 18.5648 19.1575 17.4692 19.1575 16.1178H17.6575ZM16.7105 17.0648H4.83174V18.5648H16.7105V17.0648ZM4.83174 17.0648C4.30874 17.0648 3.88477 16.6408 3.88477 16.1178H2.38477C2.38477 17.4692 3.48031 18.5648 4.83174 18.5648V17.0648ZM3.88477 16.1178V8.48144H2.38477V16.1178H3.88477ZM3.88477 8.48144C3.88477 7.95844 4.30874 7.53447 4.83174 7.53447V6.03447C3.48031 6.03447 2.38477 7.13001 2.38477 8.48144H3.88477Z" fill="white"/>
<path d="M13.3164 5.93596H18.4073" stroke="white" stroke-width="1.5" stroke-linecap="round" stroke-linejoin="round"/>
<path d="M15.8617 3.39062V8.48153" stroke="white" stroke-width="1.5" stroke-linecap="round" stroke-linejoin="round"/>
</svg>
