<svg width="81" height="84" viewBox="0 0 81 84" fill="none" xmlns="http://www.w3.org/2000/svg">
<g filter="url(#filter0_f_1439_40716)">
<ellipse cx="41.832" cy="80.5" rx="26.5" ry="2.5" fill="#E4E4E7"/>
</g>
<circle cx="35.166" cy="42" r="30" fill="#ABDDE8" fill-opacity="0.93"/>
<path d="M23.9621 29.6628C21.3477 33.4186 19.9178 36.0965 18.3214 39.6569C17.6672 41.116 16.2289 42.0717 14.6299 42.0717H12.8162C11.705 42.0717 10.4155 42.464 10.2022 43.5545C10.1594 43.773 10.155 43.9949 10.1868 44.2276C10.3769 45.6185 11.9325 46.2932 13.3362 46.2932H13.8882C9.66995 55.8563 10.0148 63.1971 12.6842 66.7395C13.3617 67.6386 14.486 68.0199 15.6072 68.122C35.5608 69.9392 47.5884 70.226 67.3838 68.2251C68.9873 68.063 70.5153 67.2787 71.2512 65.8449C74.2216 60.0572 73.3175 51.7725 69.3325 46.2932H70.6273C71.605 46.2932 72.6371 45.9995 73.1742 45.1825C73.5859 44.5562 73.6074 43.9801 73.1858 43.287C72.6508 42.4074 71.5704 42.0717 70.5408 42.0717H69.102C67.5282 42.0717 66.1084 41.145 65.4328 39.7237C63.7509 36.1852 62.2006 33.4924 59.5415 29.6762C58.805 28.6193 57.5908 28 56.3026 28H27.1846C25.9036 28 24.6939 28.6114 23.9621 29.6628Z" fill="#0D4551"/>
<path d="M60.8897 70.4973C65.1413 70.8859 67.4306 70.6114 71.3027 69.3716V71.0003C71.3027 73.2094 69.5119 75.0003 67.3027 75.0003H64.8897C62.6806 75.0003 60.8897 73.2094 60.8897 71.0003V70.4973Z" fill="#177E94"/>
<path d="M22.0263 70.1018C17.7747 70.4904 15.4854 70.2159 11.6133 68.9761V70.6047C11.6133 72.8139 13.4041 74.6047 15.6133 74.6047H18.0263C20.2355 74.6047 22.0263 72.8139 22.0263 70.6047V70.1018Z" fill="#177E94"/>
<path d="M24.879 33.2766L22.2097 38.504C20.8507 41.1654 22.7838 44.3231 25.7722 44.3231H57.6093C60.6271 44.3231 62.558 41.1089 61.1408 38.4446L58.3603 33.2173C57.6658 31.9116 56.3076 31.0957 54.8288 31.0957H28.4415C26.9386 31.0957 25.5625 31.9381 24.879 33.2766Z" fill="#177E94"/>
<circle cx="20.3643" cy="56.4253" r="4.50294" fill="#E6F6F5"/>
<circle cx="63.1416" cy="56.4253" r="4.50294" fill="#E6F6F5"/>
<path d="M50.6442 60.0827H33.4431C32.3201 60.0827 31.2867 59.4692 30.749 58.4833C29.6268 56.426 31.1314 53.9209 33.4748 53.945L50.6749 54.1224C52.9014 54.1453 54.3173 56.5129 53.2841 58.4853C52.7698 59.4673 51.7528 60.0827 50.6442 60.0827Z" fill="#177E94"/>
<defs>
<filter id="filter0_f_1439_40716" x="14.332" y="77" width="55" height="7" filterUnits="userSpaceOnUse" color-interpolation-filters="sRGB">
<feFlood flood-opacity="0" result="BackgroundImageFix"/>
<feBlend mode="normal" in="SourceGraphic" in2="BackgroundImageFix" result="shape"/>
<feGaussianBlur stdDeviation="0.5" result="effect1_foregroundBlur_1439_40716"/>
</filter>
</defs>
</svg>
