<svg width="24" height="24" viewBox="0 0 24 24" fill="none" xmlns="http://www.w3.org/2000/svg">
<circle cx="6.73047" cy="17.0317" r="2" stroke="#177E94" stroke-width="2" stroke-linecap="round" stroke-linejoin="round"/>
<circle cx="16.7305" cy="17.0317" r="2" stroke="#177E94" stroke-width="2" stroke-linecap="round" stroke-linejoin="round"/>
<path d="M4.73047 18.0317C5.28275 18.0317 5.73047 17.584 5.73047 17.0317C5.73047 16.4795 5.28275 16.0317 4.73047 16.0317V18.0317ZM2.73047 17.0317H1.73047C1.73047 17.584 2.17818 18.0317 2.73047 18.0317V17.0317ZM2.73047 11.0317L1.80199 10.6603C1.75474 10.7785 1.73047 10.9045 1.73047 11.0317H2.73047ZM4.73047 6.03174V5.03174C4.32156 5.03174 3.95386 5.28069 3.80199 5.66035L4.73047 6.03174ZM13.7305 6.03174L14.5113 5.40704C14.3216 5.16983 14.0343 5.03174 13.7305 5.03174V6.03174ZM17.7305 11.0317L16.9496 11.6564C17.1394 11.8936 17.4267 12.0317 17.7305 12.0317V11.0317ZM20.7305 17.0317V18.0317C21.2828 18.0317 21.7305 17.584 21.7305 17.0317H20.7305ZM18.7305 16.0317C18.1782 16.0317 17.7305 16.4795 17.7305 17.0317C17.7305 17.584 18.1782 18.0317 18.7305 18.0317V16.0317ZM14.7305 18.0317C15.2828 18.0317 15.7305 17.584 15.7305 17.0317C15.7305 16.4795 15.2828 16.0317 14.7305 16.0317V18.0317ZM8.73047 16.0317C8.17818 16.0317 7.73047 16.4795 7.73047 17.0317C7.73047 17.584 8.17818 18.0317 8.73047 18.0317V16.0317ZM2.73047 10.0317C2.17818 10.0317 1.73047 10.4795 1.73047 11.0317C1.73047 11.584 2.17818 12.0317 2.73047 12.0317V10.0317ZM17.7305 12.0317C18.2828 12.0317 18.7305 11.584 18.7305 11.0317C18.7305 10.4795 18.2828 10.0317 17.7305 10.0317V12.0317ZM10.7305 11.0317C10.7305 11.584 11.1782 12.0317 11.7305 12.0317C12.2828 12.0317 12.7305 11.584 12.7305 11.0317H10.7305ZM12.7305 6.03174C12.7305 5.47945 12.2828 5.03174 11.7305 5.03174C11.1782 5.03174 10.7305 5.47945 10.7305 6.03174H12.7305ZM4.73047 16.0317H2.73047V18.0317H4.73047V16.0317ZM3.73047 17.0317V11.0317H1.73047V17.0317H3.73047ZM3.65895 11.4031L5.65895 6.40313L3.80199 5.66035L1.80199 10.6603L3.65895 11.4031ZM4.73047 7.03174H13.7305V5.03174H4.73047V7.03174ZM12.9496 6.65643L16.9496 11.6564L18.5113 10.407L14.5113 5.40704L12.9496 6.65643ZM17.7305 12.0317H18.7305V10.0317H17.7305V12.0317ZM18.7305 12.0317C19.2828 12.0317 19.7305 12.4795 19.7305 13.0317H21.7305C21.7305 11.3749 20.3873 10.0317 18.7305 10.0317V12.0317ZM19.7305 13.0317V17.0317H21.7305V13.0317H19.7305ZM20.7305 16.0317H18.7305V18.0317H20.7305V16.0317ZM14.7305 16.0317H8.73047V18.0317H14.7305V16.0317ZM2.73047 12.0317H17.7305V10.0317H2.73047V12.0317ZM12.7305 11.0317V6.03174H10.7305V11.0317H12.7305Z" fill="#177E94"/>
</svg>
