<svg width="16" height="16" viewBox="0 0 16 16" fill="none" xmlns="http://www.w3.org/2000/svg">
<path d="M1.82031 2.02124L13.8203 14.0212" stroke="#7D7D7D" stroke-width="1.5" stroke-linecap="round" stroke-linejoin="round"/>
<path d="M6.87531 7.0791C6.35432 7.59972 6.35402 8.44411 6.87465 8.9651C7.39527 9.48609 8.23966 9.48639 8.76064 8.96577" stroke="#7D7D7D" stroke-width="1.5" stroke-linecap="round" stroke-linejoin="round"/>
<path d="M5.85474 2.87679C5.4565 2.99071 5.22601 3.4059 5.33993 3.80414C5.45386 4.20238 5.86905 4.43286 6.26729 4.31894L5.85474 2.87679ZM7.81901 3.35453L7.81635 4.10453H7.81901V3.35453ZM14.4857 8.0212L15.1368 8.39341C15.2686 8.16281 15.2686 7.87969 15.1369 7.64908L14.4857 8.0212ZM12.2662 9.83747C11.9851 10.1416 12.0038 10.6162 12.3079 10.8973C12.6121 11.1785 13.0866 11.1598 13.3678 10.8556L12.2662 9.83747ZM11.8097 12.209C12.1531 11.9774 12.2438 11.5112 12.0121 11.1678C11.7805 10.8244 11.3144 10.7338 10.971 10.9654L11.8097 12.209ZM1.15234 8.0212L0.501212 7.64901C0.369403 7.8796 0.369387 8.16271 0.50117 8.39332L1.15234 8.0212ZM4.66135 5.08122C5.00415 4.8487 5.09355 4.38232 4.86103 4.03952C4.62851 3.69673 4.16213 3.60733 3.81933 3.83985L4.66135 5.08122ZM6.26729 4.31894C6.77096 4.17486 7.29248 4.10267 7.81635 4.10453L7.82167 2.60454C7.15647 2.60218 6.49428 2.69384 5.85474 2.87679L6.26729 4.31894ZM7.81901 4.10453C10.1257 4.10453 12.1378 5.4243 13.8345 8.39332L15.1369 7.64908C13.2775 4.39544 10.8457 2.60453 7.81901 2.60453V4.10453ZM13.8346 7.64899C13.3387 8.51648 12.815 9.24376 12.2662 9.83747L13.3678 10.8556C14.007 10.164 14.5954 9.34058 15.1368 8.39341L13.8346 7.64899ZM10.971 10.9654C10.0054 11.6166 8.96171 11.9379 7.81901 11.9379V13.4379C9.26564 13.4379 10.6006 13.0245 11.8097 12.209L10.971 10.9654ZM7.81901 11.9379C5.51235 11.9379 3.50019 10.6181 1.80352 7.64908L0.50117 8.39332C2.36049 11.647 4.79233 13.4379 7.81901 13.4379V11.9379ZM1.80348 8.39339C2.67715 6.86494 3.63573 5.7769 4.66135 5.08122L3.81933 3.83985C2.55295 4.69883 1.45287 5.98412 0.501212 7.64901L1.80348 8.39339Z" fill="#7D7D7D"/>
</svg>
