<svg width="14" height="18" viewBox="0 0 14 18" fill="none" xmlns="http://www.w3.org/2000/svg">
<path d="M7.00065 9.83342C6.74694 9.83045 6.49841 9.90528 6.28852 10.0478C6.07863 10.1904 5.91744 10.3938 5.82666 10.6308C5.73588 10.8677 5.71987 11.1267 5.78077 11.373C5.84168 11.6194 5.97658 11.8411 6.16732 12.0084V13.1667C6.16732 13.3878 6.25512 13.5997 6.4114 13.756C6.56768 13.9123 6.77964 14.0001 7.00065 14.0001C7.22166 14.0001 7.43363 13.9123 7.58991 13.756C7.74619 13.5997 7.83398 13.3878 7.83398 13.1667V12.0084C8.02472 11.8411 8.15962 11.6194 8.22053 11.373C8.28143 11.1267 8.26542 10.8677 8.17464 10.6308C8.08386 10.3938 7.92268 10.1904 7.71278 10.0478C7.50289 9.90528 7.25436 9.83045 7.00065 9.83342ZM11.1673 6.50008V4.83342C11.1673 3.72835 10.7283 2.66854 9.94693 1.88714C9.16553 1.10573 8.10572 0.666748 7.00065 0.666748C5.89558 0.666748 4.83577 1.10573 4.05437 1.88714C3.27297 2.66854 2.83398 3.72835 2.83398 4.83342V6.50008C2.17094 6.50008 1.53506 6.76347 1.06622 7.23231C0.597377 7.70116 0.333984 8.33704 0.333984 9.00008V14.8334C0.333984 15.4965 0.597377 16.1323 1.06622 16.6012C1.53506 17.07 2.17094 17.3334 2.83398 17.3334H11.1673C11.8304 17.3334 12.4662 17.07 12.9351 16.6012C13.4039 16.1323 13.6673 15.4965 13.6673 14.8334V9.00008C13.6673 8.33704 13.4039 7.70116 12.9351 7.23231C12.4662 6.76347 11.8304 6.50008 11.1673 6.50008ZM4.50065 4.83342C4.50065 4.17037 4.76404 3.53449 5.23288 3.06565C5.70173 2.59681 6.33761 2.33341 7.00065 2.33341C7.66369 2.33341 8.29958 2.59681 8.76842 3.06565C9.23726 3.53449 9.50065 4.17037 9.50065 4.83342V6.50008H4.50065V4.83342ZM12.0007 14.8334C12.0007 15.0544 11.9129 15.2664 11.7566 15.4227C11.6003 15.579 11.3883 15.6667 11.1673 15.6667H2.83398C2.61297 15.6667 2.40101 15.579 2.24473 15.4227C2.08845 15.2664 2.00065 15.0544 2.00065 14.8334V9.00008C2.00065 8.77907 2.08845 8.56711 2.24473 8.41083C2.40101 8.25455 2.61297 8.16675 2.83398 8.16675H11.1673C11.3883 8.16675 11.6003 8.25455 11.7566 8.41083C11.9129 8.56711 12.0007 8.77907 12.0007 9.00008V14.8334Z" fill="#7D7D7D"/>
</svg>
