<svg width="24" height="24" viewBox="0 0 24 24" fill="none" xmlns="http://www.w3.org/2000/svg">
<path d="M4.73047 6.03174C4.17818 6.03174 3.73047 6.47945 3.73047 7.03174C3.73047 7.58402 4.17818 8.03174 4.73047 8.03174V6.03174ZM11.7305 8.03174C12.2828 8.03174 12.7305 7.58402 12.7305 7.03174C12.7305 6.47945 12.2828 6.03174 11.7305 6.03174V8.03174ZM10.7305 5.03174C10.7305 4.47945 10.2828 4.03174 9.73047 4.03174C9.17818 4.03174 8.73047 4.47945 8.73047 5.03174H10.7305ZM4.73047 14.0317C4.17818 14.0317 3.73047 14.4795 3.73047 15.0317C3.73047 15.584 4.17818 16.0317 4.73047 16.0317V14.0317ZM6.73047 11.0333C6.73136 10.4811 6.28436 10.0326 5.73208 10.0317C5.17979 10.0309 4.73136 10.4778 4.73047 11.0301L6.73047 11.0333ZM12.406 16.0314C12.9581 16.045 13.4166 15.6084 13.4302 15.0562C13.4437 14.5041 13.0071 14.0456 12.455 14.032L12.406 16.0314ZM4.73047 8.03174H11.7305V6.03174H4.73047V8.03174ZM8.73047 5.03174V7.03174H10.7305V5.03174H8.73047ZM8.73047 7.03174C8.73047 9.08344 8.20872 10.8935 7.418 12.1586C6.61848 13.4378 5.64198 14.0317 4.73047 14.0317V16.0317C6.58039 16.0317 8.10388 14.8348 9.114 13.2186C10.1329 11.5883 10.7305 9.39831 10.7305 7.03174H8.73047ZM4.73047 11.0301C4.72794 12.6014 5.80304 13.8492 7.16093 14.6599C8.54255 15.4847 10.3939 15.9821 12.406 16.0314L12.455 14.032C10.7187 13.9895 9.21831 13.5588 8.18615 12.9426C7.13027 12.3122 6.72955 11.606 6.73047 11.0333L4.73047 11.0301Z" fill="#177E94"/>
<path d="M9.81666 18.6256C9.59235 19.1303 9.81965 19.7212 10.3243 19.9455C10.829 20.1699 11.42 19.9426 11.6443 19.4379L9.81666 18.6256ZM14.7305 10.0317L15.6443 9.6256C15.4838 9.26447 15.1257 9.03174 14.7305 9.03174C14.3353 9.03174 13.9772 9.26447 13.8167 9.6256L14.7305 10.0317ZM17.8167 19.4379C18.041 19.9426 18.6319 20.1699 19.1366 19.9455C19.6413 19.7212 19.8686 19.1303 19.6443 18.6256L17.8167 19.4379ZM17.8305 18.0317C18.3828 18.0317 18.8305 17.584 18.8305 17.0317C18.8305 16.4795 18.3828 16.0317 17.8305 16.0317V18.0317ZM11.6305 16.0317C11.0782 16.0317 10.6305 16.4795 10.6305 17.0317C10.6305 17.584 11.0782 18.0317 11.6305 18.0317V16.0317ZM11.6443 19.4379L15.6443 10.4379L13.8167 9.6256L9.81666 18.6256L11.6443 19.4379ZM13.8167 10.4379L17.8167 19.4379L19.6443 18.6256L15.6443 9.6256L13.8167 10.4379ZM17.8305 16.0317H11.6305V18.0317H17.8305V16.0317Z" fill="#177E94"/>
</svg>
