<svg width="23" height="22" viewBox="0 0 23 22" fill="none" xmlns="http://www.w3.org/2000/svg">
<path d="M11.9998 13L8.99985 10M14.0102 2.5V1M17.9495 4.06066L19.0102 3M17.9495 12L19.0102 13.0607M10.0102 4.06066L8.94954 3M19.5102 8H21.0102M5.13122 19.8686L14.3685 10.6314C14.7645 10.2354 14.9625 10.0373 15.0367 9.80902C15.1019 9.60817 15.1019 9.39183 15.0367 9.19098C14.9625 8.96265 14.7645 8.76465 14.3685 8.36863L13.6312 7.63137C13.2352 7.23535 13.0372 7.03735 12.8089 6.96316C12.608 6.8979 12.3917 6.8979 12.1908 6.96316C11.9625 7.03735 11.7645 7.23535 11.3685 7.63137L2.13122 16.8686C1.7352 17.2646 1.53719 17.4627 1.46301 17.691C1.39775 17.8918 1.39775 18.1082 1.46301 18.309C1.53719 18.5373 1.7352 18.7354 2.13122 19.1314L2.86848 19.8686C3.2645 20.2646 3.4625 20.4627 3.69083 20.5368C3.89168 20.6021 4.10802 20.6021 4.30887 20.5368C4.53719 20.4627 4.7352 20.2646 5.13122 19.8686Z" stroke="#7D7D7D" stroke-width="2" stroke-linecap="round" stroke-linejoin="round"/>
</svg>
