<svg width="81" height="84" viewBox="0 0 81 84" fill="none" xmlns="http://www.w3.org/2000/svg">
<circle cx="41.832" cy="42" r="30" fill="#ABDDE8" fill-opacity="0.93"/>
<rect width="32.1443" height="6.50796" rx="2" transform="matrix(0.688251 -0.725473 0.713574 0.70058 10.6641 71.4404)" fill="#0D4551"/>
<rect width="11.9869" height="6.50796" rx="2" transform="matrix(0.688251 -0.725473 0.713574 0.70058 33.3691 47.5078)" fill="#177E94"/>
<rect width="3.49038" height="12.3498" rx="1.74519" transform="matrix(0.900982 -0.433857 0.421871 0.906656 30.6699 24.3989)" fill="white"/>
<rect width="3.49038" height="12.3498" rx="1.74519" transform="matrix(-0.900982 -0.433857 -0.421871 0.906656 52.9414 23.5142)" fill="white"/>
<rect width="3.52857" height="12.2162" rx="1.76428" transform="matrix(-0.421058 -0.907034 -0.901379 0.433031 64.041 36.7031)" fill="white"/>
<rect width="3.52169" height="12.2405" rx="1.76085" transform="matrix(0.369391 -0.929274 0.923372 0.383907 19.0801 38.3149)" fill="white"/>
<rect width="3.49038" height="12.3498" rx="1.74519" transform="matrix(-0.900982 0.433857 -0.421871 -0.906656 49.8086 63.0659)" fill="white"/>
<rect width="3.52169" height="12.2405" rx="1.76085" transform="matrix(-0.538489 0.842633 -0.834091 -0.551627 61.9121 52.6436)" fill="white"/>
<g filter="url(#filter0_f_1439_40741)">
<ellipse cx="41.1641" cy="80.5" rx="26.5" ry="2.5" fill="#E4E4E7"/>
</g>
<defs>
<filter id="filter0_f_1439_40741" x="13.6641" y="77" width="55" height="7" filterUnits="userSpaceOnUse" color-interpolation-filters="sRGB">
<feFlood flood-opacity="0" result="BackgroundImageFix"/>
<feBlend mode="normal" in="SourceGraphic" in2="BackgroundImageFix" result="shape"/>
<feGaussianBlur stdDeviation="0.5" result="effect1_foregroundBlur_1439_40741"/>
</filter>
</defs>
</svg>
