<svg width="54" height="54" viewBox="0 0 54 54" fill="none" xmlns="http://www.w3.org/2000/svg">
<circle cx="27.0008" cy="27" r="22.95" fill="#B1DFE9"/>
<path d="M40.0986 34.4981C40.0986 36.9728 38.1232 38.9609 35.7085 38.9609C33.2938 38.9609 31.3184 36.9728 31.3184 34.4981C31.3184 32.0235 33.2938 30.0354 35.7085 30.0354C38.1232 30.0354 40.0986 32.0235 40.0986 34.4981Z" fill="#177E94" stroke="#0D4551" stroke-width="1.5"/>
<path d="M20.5461 31.4408C18.105 26.2227 20.6145 24.0547 20.6427 20.0049C20.648 19.2344 21.2334 18.5502 22.0039 18.5502C22.3116 18.5502 22.6162 18.4453 22.8311 18.2251C23.1162 17.9329 23.2523 17.6812 23.1396 17.3906C22.9094 16.7976 22.1377 16.6803 21.5015 16.6803C20.4955 16.6803 19.6551 16.0472 18.8221 15.483C18.7333 15.4229 18.6396 15.3674 18.5395 15.3162C17.4277 14.7477 15.9173 15.418 15.7571 16.6564C15.7049 17.0604 15.7475 17.4759 15.8826 17.9414C16.2004 19.0368 17.5511 19.9866 16.9056 20.9269C15.799 22.5388 12.3241 25.4484 12.0645 29.4913C16.0793 30.198 17.8345 31.2495 19.3109 35.3001H38.3459C41.7016 35.3001 45.3287 32.9738 44.1328 29.8384C43.3724 27.845 41.6926 26.4365 40.1047 25.2127C38.1668 23.7192 35.7529 22.6879 33.3064 22.6879H31.3233C29.4918 22.6879 26.9514 23.3159 27.3571 25.102C27.737 26.7746 29.9425 28.4297 28.3278 31.4408H20.5461Z" fill="#177E94" stroke="#177E94"/>
<rect x="27.2793" y="19.261" width="11.1026" height="2.40588" rx="1.20294" fill="#0D4551"/>
<path d="M18.3335 34.4394C18.3335 36.8717 16.3617 38.8435 13.9294 38.8435C11.4971 38.8435 9.52539 36.8717 9.52539 34.4394C9.52539 32.0072 11.4971 30.0354 13.9294 30.0354C16.3617 30.0354 18.3335 32.0072 18.3335 34.4394Z" fill="#177E94" stroke="#0D4551" stroke-width="1.5"/>
<ellipse cx="16.1771" cy="17.256" rx="2.05604" ry="2.40588" fill="#E8F2F4"/>
<path d="M35.9141 25.2756C39.306 27.5686 40.3211 27.5512 41.2111 30.5518" stroke="#B1DFE9" stroke-linecap="round"/>
</svg>
