<svg width="38" height="38" viewBox="0 0 38 38" fill="none" xmlns="http://www.w3.org/2000/svg">
<circle cx="18.9996" cy="19.0001" r="16.15" fill="#B1DFE9"/>
<path d="M11.2317 11.6598C10.7157 12.4813 10.3325 13.2122 9.94325 14.054C9.58014 14.8392 8.80544 15.3581 7.94031 15.3581H7.77676C7.2799 15.3581 6.70361 15.4993 6.65413 15.9937C6.59161 16.6183 7.38161 16.973 8.00932 16.973H8.07426C6.77173 19.926 6.60657 22.325 7.12837 23.853C7.4922 24.9184 8.67031 25.3204 9.79191 25.4178C16.2901 25.9822 20.6457 26.0797 26.9896 25.5108C28.5949 25.3669 30.1937 24.5643 30.5324 22.9886C30.9631 20.9847 30.4961 18.6396 29.284 16.973H29.4029C30.0194 16.973 30.8642 16.814 30.8753 16.1975C30.8764 16.1373 30.8671 16.0763 30.8472 16.0133C30.6872 15.509 30.0646 15.3581 29.5355 15.3581C28.7267 15.3581 27.9995 14.8805 27.6448 14.1537C27.219 13.2812 26.7995 12.5269 26.2455 11.6675C25.5476 10.5847 24.3207 9.9751 23.0324 9.9751H14.4197C13.1388 9.9751 11.913 10.575 11.2317 11.6598Z" fill="#0D4551"/>
<path d="M11.3046 26.1241C9.72502 26.1255 8.86135 26.0196 7.32116 25.6934V25.8549C7.32116 26.9549 8.21288 27.8466 9.31287 27.8466H9.58202C10.5334 27.8466 11.3046 27.0754 11.3046 26.1241Z" fill="#0D4551"/>
<path d="M26.0537 26.2317C27.6801 26.3803 28.5559 26.2753 30.0371 25.801V25.9625C30.0371 27.0625 29.1454 27.9542 28.0454 27.9542H27.7763C26.8249 27.9542 26.0537 27.183 26.0537 26.2317Z" fill="#0D4551"/>
<path d="M23.1353 11.1594H14.2538C13.3032 11.1594 12.4328 11.6923 12.0005 12.5388C11.141 14.2222 12.3636 16.2194 14.2538 16.2194H23.1353C25.044 16.2194 26.2653 14.1865 25.3689 12.5013C24.9297 11.6755 24.0706 11.1594 23.1353 11.1594Z" fill="#177E94"/>
<circle cx="10.5507" cy="20.8488" r="1.72256" fill="#E6F6F5"/>
<circle cx="26.9159" cy="20.8488" r="1.72256" fill="#E6F6F5"/>
<path d="M22.1353 22.2482H15.5552C15.1256 22.2482 14.7303 22.0135 14.5246 21.6363C14.0953 20.8493 14.6709 19.891 15.5673 19.9003L22.1471 19.9681C22.9988 19.9769 23.5405 20.8826 23.1452 21.6371C22.9485 22.0128 22.5594 22.2482 22.1353 22.2482Z" fill="#177E94"/>
</svg>
