<svg width="25" height="25" viewBox="0 0 25 25" fill="none" xmlns="http://www.w3.org/2000/svg">
<path d="M3.37695 21.6079H21.377" stroke="#5D5D5D" stroke-width="2" stroke-linecap="round" stroke-linejoin="round"/>
<path d="M4.37695 7.60791C4.37695 7.05563 3.92924 6.60791 3.37695 6.60791C2.82467 6.60791 2.37695 7.05563 2.37695 7.60791H4.37695ZM10.377 7.60791C10.377 7.05563 9.92924 6.60791 9.37695 6.60791C8.82467 6.60791 8.37695 7.05563 8.37695 7.60791H10.377ZM10.377 8.60791C10.377 8.05563 9.92924 7.60791 9.37695 7.60791C8.82467 7.60791 8.37695 8.05563 8.37695 8.60791H10.377ZM16.377 7.60791C16.377 7.05563 15.9292 6.60791 15.377 6.60791C14.8247 6.60791 14.377 7.05563 14.377 7.60791H16.377ZM16.377 8.60791C16.377 8.05563 15.9292 7.60791 15.377 7.60791C14.8247 7.60791 14.377 8.05563 14.377 8.60791H16.377ZM21.377 7.60791H22.377C22.377 7.05563 21.9292 6.60791 21.377 6.60791V7.60791ZM3.37695 7.60791L2.48253 7.1607C2.32753 7.47068 2.3441 7.83882 2.5263 8.13364C2.70851 8.42846 3.03038 8.60791 3.37695 8.60791V7.60791ZM5.37695 3.60791V2.60791C4.99818 2.60791 4.65192 2.82191 4.48253 3.1607L5.37695 3.60791ZM19.377 3.60791L20.2714 3.1607C20.102 2.82191 19.7557 2.60791 19.377 2.60791V3.60791ZM20.4825 8.05512C20.7295 8.5491 21.3302 8.74933 21.8242 8.50234C22.3181 8.25535 22.5184 7.65468 22.2714 7.1607L20.4825 8.05512ZM2.37695 7.60791V8.60791H4.37695V7.60791H2.37695ZM2.37695 8.60791C2.37695 10.817 4.16781 12.6079 6.37695 12.6079V10.6079C5.27238 10.6079 4.37695 9.71248 4.37695 8.60791H2.37695ZM6.37695 12.6079C8.58609 12.6079 10.377 10.817 10.377 8.60791H8.37695C8.37695 9.71248 7.48152 10.6079 6.37695 10.6079V12.6079ZM10.377 8.60791V7.60791H8.37695V8.60791H10.377ZM8.37695 8.60791C8.37695 10.817 10.1678 12.6079 12.377 12.6079V10.6079C11.2724 10.6079 10.377 9.71248 10.377 8.60791H8.37695ZM12.377 12.6079C14.5861 12.6079 16.377 10.817 16.377 8.60791H14.377C14.377 9.71248 13.4815 10.6079 12.377 10.6079V12.6079ZM16.377 8.60791V7.60791H14.377V8.60791H16.377ZM14.377 8.60791C14.377 10.817 16.1678 12.6079 18.377 12.6079V10.6079C17.2724 10.6079 16.377 9.71248 16.377 8.60791H14.377ZM18.377 12.6079C20.5861 12.6079 22.377 10.817 22.377 8.60791H20.377C20.377 9.71248 19.4815 10.6079 18.377 10.6079V12.6079ZM22.377 8.60791V7.60791H20.377V8.60791H22.377ZM21.377 6.60791H3.37695V8.60791H21.377V6.60791ZM4.27138 8.05512L6.27138 4.05512L4.48253 3.1607L2.48253 7.1607L4.27138 8.05512ZM5.37695 4.60791H19.377V2.60791H5.37695V4.60791ZM18.4825 4.05512L20.4825 8.05512L22.2714 7.1607L20.2714 3.1607L18.4825 4.05512Z" fill="#5D5D5D"/>
<path d="M5.37695 21.608V11.458" stroke="#5D5D5D" stroke-width="2" stroke-linecap="round" stroke-linejoin="round"/>
<path d="M19.377 21.608V11.458" stroke="#5D5D5D" stroke-width="2" stroke-linecap="round" stroke-linejoin="round"/>
<path d="M9.37695 21.6079V17.6079C9.37695 16.5033 10.2724 15.6079 11.377 15.6079H13.377C14.4815 15.6079 15.377 16.5033 15.377 17.6079V21.6079" stroke="#5D5D5D" stroke-width="2" stroke-linecap="round" stroke-linejoin="round"/>
</svg>
