<svg width="54" height="54" viewBox="0 0 54 54" fill="none" xmlns="http://www.w3.org/2000/svg">
<circle cx="27.0008" cy="27" r="22.95" fill="#B1DFE9"/>
<path d="M16.4254 15.8482C15.4445 17.3259 14.7927 18.5351 14.1286 19.9714C13.6126 21.0872 12.5117 21.8246 11.2823 21.8246H11.0498C10.3438 21.8246 9.52484 22.0253 9.45453 22.7278C9.36569 23.6154 10.4883 24.1194 11.3803 24.1194H11.4726C9.41863 28.776 9.35491 32.4633 10.4068 34.5656C10.9106 35.5724 12.0704 35.9567 13.1917 36.0565C23.1923 36.9465 29.5715 37.093 39.4087 36.1544C41.013 36.0013 42.5815 35.2145 43.104 33.6899C44.1455 30.6511 43.5462 26.7779 41.6128 24.1194H41.7817C42.6578 24.1194 43.8583 23.8935 43.8741 23.0175C43.8756 22.9319 43.8625 22.8451 43.8341 22.7557C43.6068 22.039 42.722 21.8246 41.9701 21.8246C40.8209 21.8246 39.7874 21.1459 39.2833 20.113C38.5624 18.6355 37.8539 17.3965 36.8196 15.8587C36.1006 14.7898 34.8812 14.175 33.593 14.175H19.6313C18.3503 14.175 17.1339 14.781 16.4254 15.8482Z" fill="#0D4551"/>
<path d="M16.0631 37.1236C13.8184 37.1256 12.5911 36.9751 10.4024 36.5116V36.7411C10.4024 38.3043 11.6696 39.5714 13.2327 39.5714H13.6152C14.9671 39.5714 16.0631 38.4755 16.0631 37.1236Z" fill="#0D4551"/>
<path d="M37.023 37.2765C39.3342 37.4877 40.5786 37.3385 42.6836 36.6646V36.894C42.6836 38.4572 41.4164 39.7244 39.8533 39.7244H39.4708C38.1189 39.7244 37.023 38.6284 37.023 37.2765Z" fill="#0D4551"/>
<path d="M32.8747 15.8579H20.2536C18.9028 15.8579 17.666 16.6151 17.0517 17.8181C15.8301 20.2103 17.5676 23.0485 20.2536 23.0485H32.8747C35.5871 23.0485 37.3226 20.1595 36.0488 17.7648C35.4246 16.5913 34.2039 15.8579 32.8747 15.8579Z" fill="#177E94"/>
<ellipse cx="14.9928" cy="29.627" rx="2.44784" ry="2.44784" fill="#E6F6F5"/>
<ellipse cx="38.2467" cy="29.627" rx="2.44784" ry="2.44784" fill="#E6F6F5"/>
<path d="M31.4523 31.6158H22.1016C21.4911 31.6158 20.9294 31.2823 20.637 30.7464C20.027 29.628 20.845 28.2662 22.1188 28.2793L31.469 28.3757C32.6793 28.3882 33.449 29.6752 32.8874 30.7474C32.6078 31.2813 32.0549 31.6158 31.4523 31.6158Z" fill="#177E94"/>
</svg>
