<svg width="38" height="38" viewBox="0 0 38 38" fill="none" xmlns="http://www.w3.org/2000/svg">
<circle cx="18.9996" cy="19.0001" r="16.15" fill="#B1DFE9"/>
<path d="M27.9959 24.2764C27.9959 25.898 26.7024 27.1946 25.1288 27.1946C23.5553 27.1946 22.2617 25.898 22.2617 24.2764C22.2617 22.6547 23.5553 21.3582 25.1288 21.3582C26.7024 21.3582 27.9959 22.6547 27.9959 24.2764Z" fill="#177E94" stroke="#0D4551" stroke-width="1.5"/>
<path d="M14.4588 22.1249C12.741 18.4529 14.5069 16.9273 14.5268 14.0774C14.5305 13.5352 14.9424 13.0537 15.4847 13.0537C15.7012 13.0537 15.9156 12.9799 16.0668 12.825C16.2674 12.6193 16.3632 12.4422 16.2838 12.2377C16.1219 11.8204 15.5788 11.7378 15.1311 11.7378C14.4232 11.7378 13.8318 11.2923 13.2456 10.8953C13.1832 10.853 13.1172 10.814 13.0467 10.778C12.2644 10.3779 11.2015 10.8496 11.0888 11.721C11.0643 11.9101 11.0694 12.1027 11.1035 12.3068C11.2699 13.3038 12.3278 14.1964 11.7011 14.9894C10.773 16.164 8.65963 18.1159 8.49023 20.753C11.3155 21.2503 12.5507 21.9903 13.5896 24.8407H25.3293C28.685 24.8407 32.3344 22.1835 30.2195 19.578C29.8173 19.0825 29.3424 18.6454 28.8544 18.2433C27.1326 16.8247 24.8629 15.9655 22.632 15.9655C20.9619 15.9655 18.7355 16.7082 19.4545 18.2157C19.9365 19.2263 20.8945 20.3352 19.9348 22.1249H14.4588Z" fill="#177E94" stroke="#177E94"/>
<rect x="19.1973" y="13.554" width="7.81295" height="1.69303" rx="0.846514" fill="#0D4551"/>
<circle cx="9.8027" cy="24.2351" r="2.87692" fill="#177E94" stroke="#0D4551" stroke-width="1.5"/>
<ellipse cx="11.3843" cy="12.143" rx="1.44684" ry="1.69303" fill="#E8F2F4"/>
<path d="M25.2734 17.7866C27.6604 19.4002 28.3747 19.3879 29.001 21.4995" stroke="#B1DFE9" stroke-linecap="round"/>
</svg>
