<svg width="16" height="19" viewBox="0 0 16 19" fill="none" xmlns="http://www.w3.org/2000/svg">
<path d="M2.19672 16.771C1.70948 16.9854 1.46587 17.0926 1.31637 17.0455C1.18677 17.0047 1.08521 16.9032 1.04424 16.7737C0.996988 16.6242 1.10389 16.3805 1.31771 15.893L7.38551 2.05842C7.57852 1.61835 7.67502 1.39832 7.80994 1.33097C7.92711 1.27249 8.06496 1.27249 8.18213 1.33097C8.31705 1.39832 8.41355 1.61835 8.60656 2.05842L14.6744 15.893C14.8882 16.3805 14.9951 16.6242 14.9478 16.7737C14.9069 16.9032 14.8053 17.0047 14.6757 17.0455C14.5262 17.0926 14.2826 16.9854 13.7953 16.771L8.26453 14.3374C8.16562 14.2939 8.11617 14.2722 8.0648 14.2636C8.01927 14.2559 7.9728 14.2559 7.92727 14.2636C7.8759 14.2722 7.82645 14.2939 7.72754 14.3374L2.19672 16.771Z" stroke="white" stroke-width="2" stroke-linecap="round" stroke-linejoin="round"/>
</svg>
