<svg width="23" height="23" viewBox="0 0 23 23" fill="none" xmlns="http://www.w3.org/2000/svg">
<path d="M8.35547 8.57617H8.36547M14.3555 14.5762H14.3655M15.3555 7.57617L7.35547 15.5762M17.2566 4.57468C17.4626 5.0727 17.8578 5.46857 18.3555 5.67524L20.1007 6.39815C20.5988 6.60445 20.9944 7.00017 21.2007 7.49823C21.407 7.9963 21.407 8.55592 21.2007 9.05398L20.4784 10.798C20.272 11.2963 20.2717 11.8564 20.479 12.3545L21.2001 14.098C21.3024 14.3447 21.3551 14.6091 21.3551 14.8761C21.3552 15.1432 21.3026 15.4076 21.2004 15.6543C21.0982 15.901 20.9484 16.1252 20.7596 16.314C20.5707 16.5028 20.3465 16.6525 20.0998 16.7546L18.3558 17.477C17.8578 17.683 17.462 18.0782 17.2553 18.5759L16.5324 20.3212C16.3261 20.8193 15.9304 21.215 15.4324 21.4213C14.9343 21.6276 14.3747 21.6276 13.8767 21.4213L12.1328 20.6989C11.6347 20.4931 11.0753 20.4935 10.5775 20.7001L8.83236 21.4219C8.33459 21.6278 7.77548 21.6276 7.27784 21.4214C6.7802 21.2153 6.38472 20.8201 6.17828 20.3225L5.45519 18.5768C5.24927 18.0787 4.85401 17.6829 4.35632 17.4762L2.61113 16.7533C2.1133 16.5471 1.71772 16.1516 1.51135 15.6538C1.30498 15.1561 1.3047 14.5967 1.51057 14.0987L2.23293 12.3547C2.43872 11.8566 2.4383 11.2972 2.23176 10.7995L1.51044 9.05296C1.40817 8.80627 1.35551 8.54185 1.35547 8.2748C1.35543 8.00776 1.408 7.74332 1.51019 7.4966C1.61238 7.24989 1.76218 7.02572 1.95104 6.83692C2.13989 6.64813 2.36409 6.49839 2.61083 6.39628L4.35477 5.67389C4.85234 5.46814 5.24795 5.07337 5.45477 4.57623L6.17765 2.83098C6.38395 2.33292 6.77964 1.93721 7.27769 1.7309C7.77574 1.5246 8.33534 1.5246 8.83338 1.7309L10.5773 2.45329C11.0754 2.65908 11.6348 2.65866 12.1325 2.45212L13.8784 1.73202C14.3764 1.52583 14.9359 1.52587 15.4338 1.73214C15.9318 1.9384 16.3274 2.334 16.5338 2.83194L17.2569 4.5777L17.2566 4.57468ZM8.85547 8.57617C8.85547 8.85231 8.63161 9.07617 8.35547 9.07617C8.07933 9.07617 7.85547 8.85231 7.85547 8.57617C7.85547 8.30003 8.07933 8.07617 8.35547 8.07617C8.63161 8.07617 8.85547 8.30003 8.85547 8.57617ZM14.8555 14.5762C14.8555 14.8523 14.6316 15.0762 14.3555 15.0762C14.0793 15.0762 13.8555 14.8523 13.8555 14.5762C13.8555 14.3 14.0793 14.0762 14.3555 14.0762C14.6316 14.0762 14.8555 14.3 14.8555 14.5762Z" stroke="#5D5D5D" stroke-width="2" stroke-linecap="round" stroke-linejoin="round"/>
</svg>
