<svg width="21" height="21" viewBox="0 0 21 21" fill="none" xmlns="http://www.w3.org/2000/svg">
<path d="M0.784445 9.93048C0.728477 10.4799 1.12852 10.9707 1.67796 11.0267C2.2274 11.0826 2.71818 10.6826 2.77415 10.1332L0.784445 9.93048ZM3.21859 13.6887C3.0291 13.1699 2.45495 12.903 1.93619 13.0925C1.41743 13.282 1.15051 13.8562 1.34 14.3749L3.21859 13.6887ZM0.779297 19.0318C0.779297 19.5841 1.22701 20.0318 1.7793 20.0318C2.33158 20.0318 2.7793 19.5841 2.7793 19.0318H0.779297ZM1.7793 14.0318V13.0318C1.22701 13.0318 0.779297 13.4795 0.779297 14.0318H1.7793ZM6.7793 15.0318C7.33158 15.0318 7.7793 14.5841 7.7793 14.0318C7.7793 13.4795 7.33158 13.0318 6.7793 13.0318V15.0318ZM2.77415 10.1332C3.18654 6.08466 6.57242 2.99086 10.6416 2.94438L10.6188 0.944509C5.53229 1.00261 1.29993 4.86987 0.784445 9.93048L2.77415 10.1332ZM10.6416 2.94438C14.7108 2.8979 18.1664 5.91356 18.6712 9.95158L20.6557 9.70351C20.0248 4.65599 15.7052 0.886412 10.6188 0.944509L10.6416 2.94438ZM18.6712 9.95158C19.1759 13.9896 16.5689 17.7631 12.6135 18.7197L13.0836 20.6636C18.0279 19.4679 21.2867 14.751 20.6557 9.70351L18.6712 9.95158ZM12.6135 18.7197C8.6581 19.6763 4.61484 17.5111 3.21859 13.6887L1.34 14.3749C3.08531 19.1529 8.13939 21.8594 13.0836 20.6636L12.6135 18.7197ZM2.7793 19.0318V14.0318H0.779297V19.0318H2.7793ZM1.7793 15.0318H6.7793V13.0318H1.7793V15.0318Z" fill="#177E94"/>
</svg>
