<svg width="24" height="24" viewBox="0 0 24 24" fill="none" xmlns="http://www.w3.org/2000/svg">
<path fill-rule="evenodd" clip-rule="evenodd" d="M10.0555 4.34874C10.4815 2.59274 12.9795 2.59274 13.4055 4.34874C13.5351 4.8838 13.9125 5.32476 14.4211 5.53548C14.9297 5.74621 15.5084 5.70134 15.9785 5.41474C17.5215 4.47474 19.2885 6.24074 18.3485 7.78474C18.0623 8.25459 18.0175 8.83282 18.228 9.34112C18.4385 9.84942 18.8789 10.2267 19.4135 10.3567C21.1695 10.7827 21.1695 13.2807 19.4135 13.7067C18.8784 13.8364 18.4374 14.2138 18.2267 14.7224C18.016 15.231 18.0609 15.8097 18.3475 16.2797C19.2875 17.8227 17.5215 19.5897 15.9775 18.6497C15.5076 18.3636 14.9294 18.3188 14.4211 18.5293C13.9128 18.7397 13.5355 19.1802 13.4055 19.7147C12.9795 21.4707 10.4815 21.4707 10.0555 19.7147C9.92583 19.1797 9.54844 18.7387 9.03982 18.528C8.5312 18.3173 7.95253 18.3621 7.48247 18.6487C5.93947 19.5887 4.17247 17.8227 5.11247 16.2787C5.39866 15.8089 5.44341 15.2307 5.23294 14.7224C5.02247 14.2141 4.58204 13.8367 4.04747 13.7067C2.29147 13.2807 2.29147 10.7827 4.04747 10.3567C4.58253 10.2271 5.02349 9.8497 5.23421 9.34109C5.44494 8.83247 5.40007 8.2538 5.11347 7.78374C4.17347 6.24074 5.93947 4.47374 7.48347 5.41374C8.48347 6.02174 9.77947 5.48374 10.0555 4.34874Z" stroke="#177E94" stroke-width="2" stroke-linecap="round" stroke-linejoin="round"/>
<circle cx="11.7305" cy="12.0317" r="3" stroke="#177E94" stroke-width="2" stroke-linecap="round" stroke-linejoin="round"/>
</svg>
