<svg width="81" height="84" viewBox="0 0 81 84" fill="none" xmlns="http://www.w3.org/2000/svg">
<circle cx="41.5" cy="42" r="30" fill="#ABDDE8" fill-opacity="0.93"/>
<path d="M71.5572 64.5644C71.5572 68.9669 68.0434 72.4998 63.7532 72.4998C59.463 72.4998 55.9492 68.9669 55.9492 64.5644C55.9492 60.1618 59.463 56.6289 63.7532 56.6289C68.0434 56.6289 71.5572 60.1618 71.5572 64.5644Z" fill="#177E94" stroke="#0D4551" stroke-width="3"/>
<path d="M36.3056 59.0305C31.887 49.5854 36.4294 45.6611 36.4804 38.3306C36.4901 36.9359 37.5496 35.6975 38.9443 35.6975C39.5013 35.6975 40.0526 35.5076 40.4416 35.109C41.0796 34.4552 41.3054 33.9132 40.7775 33.2122C40.2598 32.5248 39.3436 32.3127 38.4831 32.3127H37.2966C35.9357 32.3127 34.7596 31.5302 33.7616 30.605C33.1479 30.0361 32.4205 29.6373 31.3812 29.364C30.0238 29.0071 28.5417 29.6471 28.0014 30.9425C27.3558 32.4906 27.4909 33.9426 28.3653 35.9578C28.8193 37.0041 30.4337 37.5602 30.3186 38.6949C30.0694 41.1523 21.5047 46.9148 20.9531 55.5018C28.2204 56.7809 31.3974 58.6842 34.0698 66.0161H73.05C76.4058 66.0161 79.6838 63.9171 79.7516 60.562C79.9024 53.0959 73.5716 49.3043 69.2225 45.8396C67.3089 44.3152 64.9871 43.1871 62.5406 43.1871H53.52C51.6884 43.1871 49.6397 43.666 48.858 45.3224C46.9899 49.2803 54.0197 52.2637 50.391 59.0305H36.3056Z" fill="#177E94" stroke="#177E94"/>
<rect x="48.4922" y="36.9834" width="20.0966" height="4.35483" rx="2.17741" fill="#0D4551"/>
<circle cx="24.3292" cy="64.4581" r="7.82921" fill="#177E94" stroke="#0D4551" stroke-width="3"/>
<ellipse cx="28.3974" cy="33.3548" rx="3.72159" ry="4.35483" fill="#FEF3F2"/>
<path d="M64.125 47.8711C70.2647 52.0216 72.1902 54.7783 73.8011 60.2098" stroke="#FEF3F2" stroke-width="3" stroke-linecap="round"/>
<g filter="url(#filter0_f_1439_40729)">
<ellipse cx="44.5" cy="80.5" rx="26.5" ry="2.5" fill="#E4E4E7"/>
</g>
<defs>
<filter id="filter0_f_1439_40729" x="17" y="77" width="55" height="7" filterUnits="userSpaceOnUse" color-interpolation-filters="sRGB">
<feFlood flood-opacity="0" result="BackgroundImageFix"/>
<feBlend mode="normal" in="SourceGraphic" in2="BackgroundImageFix" result="shape"/>
<feGaussianBlur stdDeviation="0.5" result="effect1_foregroundBlur_1439_40729"/>
</filter>
</defs>
</svg>
